<svg width="234" height="80" viewBox="0 0 234 80" fill="none" xmlns="http://www.w3.org/2000/svg">
<path d="M0 20C0 8.95431 8.95431 0 20 0H204C220.569 0 234 13.4315 234 30V70C234 75.5228 229.523 80 224 80H25C11.1929 80 0 68.8071 0 55V20Z" fill="white"/>
<path d="M45.2422 76C44.3005 75.9002 43.3551 75.8271 42.418 75.6953C37.3555 74.984 32.6472 73.2924 28.3458 70.5048C26.3292 69.1978 24.4604 67.7126 22.7919 65.9806C22.6205 65.8024 22.4712 65.5998 22.2274 65.3119C22.9588 65.1299 23.585 64.9593 24.2189 64.8191C25.6595 64.5 27.0499 64.7963 28.3778 65.3119C31.3422 66.4635 34.2898 67.6608 37.2275 68.881C38.4274 69.3791 39.5588 70.0432 40.7663 70.5177C41.4314 70.779 42.1879 70.8125 42.9079 70.9237C43.0404 70.9442 43.1996 70.8627 43.3322 70.7972C44.6449 70.146 45.9225 69.4194 47.274 68.8558C48.2919 68.4308 49.411 68.2557 50.4578 67.8908C51.708 67.4544 52.9239 66.9213 54.1642 66.4544C55.0495 66.1215 55.9462 65.8192 56.8444 65.5221C57.7377 65.2266 58.5423 64.7111 59.1841 64.0232C60.7258 62.3937 62.4158 60.911 64.2321 59.5943C64.8568 59.1373 65.5059 58.7222 66.1413 58.2835C66.3279 58.1548 66.5047 58.0116 66.7081 57.8578C66.4544 57.5074 66.6274 57.2431 66.8605 56.9857C67.3839 56.4061 67.9728 55.9194 68.7232 55.6559C68.8855 55.5987 69.0881 55.5599 68.9518 55.2933C68.647 54.7068 67.6757 54.227 67.0075 54.3534C67.1827 54.8866 67.0136 55.3299 66.7073 55.7701C65.4678 57.5546 63.8954 59.0215 62.2787 60.4481C61.2243 61.3788 60.1828 62.3187 59.328 63.4512C58.7948 64.1557 58.0657 64.5937 57.2269 64.8854C54.8509 65.6978 52.4782 66.5234 50.1089 67.3623C48.1105 68.0652 46.1168 68.7827 44.1207 69.4948C44.0872 69.5063 44.0491 69.504 43.9851 69.4385C44.5527 69.197 45.1142 68.9388 45.6894 68.718C48.0953 67.7954 50.5035 66.8796 52.914 65.9707C54.3417 65.4292 55.7679 64.8831 57.2002 64.353C57.7274 64.158 58.1868 63.8648 58.5144 63.42C59.7692 61.7215 61.3706 60.3795 62.9621 59.0223C63.5205 58.5463 64.0576 58.0436 64.5947 57.5424C64.6709 57.4663 64.7646 57.3086 64.7342 57.2378C64.3334 56.3398 64.7677 55.6817 65.3314 55.0534C65.5798 54.7762 65.8244 54.4944 66.1299 54.1478C65.3513 53.8904 64.6869 53.9193 64.0729 54.2666C63.6919 54.4814 63.3049 54.7411 63.0238 55.0694C61.4026 56.9636 59.4141 58.4206 57.4265 59.8898C56.9983 60.2059 56.5839 60.541 56.1412 60.8358C55.9386 60.9706 55.9073 61.0993 55.982 61.3057C56.0681 61.5418 56.1344 61.7848 56.2106 62.0247L56.0864 62.0818C55.9774 61.9066 55.8281 61.7444 55.7694 61.5548C55.6635 61.2151 55.4411 61.1739 55.1554 61.2387C54.0598 61.4809 52.9635 61.7177 51.8726 61.9752C50.9385 62.1945 50.0159 62.4596 49.0796 62.6675C48.1814 62.8671 47.2931 62.7239 46.42 62.4817C45.6543 62.2692 44.8917 62.0468 44.1276 61.8259C44.0717 61.8036 44.0184 61.7755 43.9684 61.7421C43.9767 61.7116 43.9844 61.6812 43.9927 61.6515C44.6685 61.7878 45.345 61.9188 46.0193 62.0635C46.8459 62.2402 47.6603 62.5395 48.5235 62.3895C49.0316 62.3019 49.5306 62.161 50.0296 62.027C50.1209 61.994 50.199 61.9323 50.2521 61.851C50.7405 61.1298 51.222 60.4039 51.6996 59.6796C51.7167 59.6445 51.7293 59.6074 51.737 59.5692C50.2133 59.5692 48.6934 59.5745 47.175 59.5692C45.6566 59.5638 44.1474 59.3033 42.6039 59.6529C42.7159 60.3536 43.0762 60.9035 43.3741 61.4809C43.6933 62.1039 43.7985 62.7696 43.6217 63.4543C43.5867 63.5899 43.4297 63.6942 43.3292 63.813C43.253 63.695 43.1395 63.5845 43.1052 63.4573C42.7844 62.2433 42.4774 61.0254 42.1628 59.7954L39.5869 60.8556L39.5298 60.7558C39.6418 60.6682 39.75 60.5738 39.8665 60.493C40.9491 59.7451 42.0264 59.004 43.3459 58.6933C44.3561 58.4549 45.3572 58.5661 46.3659 58.5927C47.8957 58.6323 49.427 58.6803 50.9568 58.6689C52.1202 58.6605 53.2881 58.6125 54.4453 58.496C55.256 58.4145 56.0544 58.1959 56.8528 58.0177C57.0554 57.9728 57.2406 57.8478 57.5232 57.7184C56.8231 57.7785 56.2281 57.8456 55.63 57.8753C55.1798 57.8981 54.9908 57.6917 54.987 57.2416C54.9802 56.4632 55.112 55.681 54.8232 54.9148C54.7128 54.6215 54.8849 54.3588 55.1927 54.2613C55.4606 54.1878 55.7325 54.13 56.0071 54.0884C56.1252 54.0655 56.2448 54.0549 56.3644 54.0389C56.3644 53.9909 56.3644 53.9422 56.3606 53.8942C55.771 53.8881 55.1813 53.8561 54.5931 53.8805C52.2779 53.9757 49.9634 54.0922 47.6481 54.1943C45.5469 54.2864 43.5211 53.8751 41.5434 53.214C38.5112 52.2011 35.393 51.8865 32.2237 52.0937C29.8794 52.246 27.5405 52.4882 25.2017 52.722C23.9774 52.8439 22.8049 53.1988 21.6667 53.6687C20.0668 54.3291 18.4669 54.9803 16.8609 55.6338C16.7453 55.6891 16.6158 55.7085 16.4891 55.6894C16.5711 55.6181 16.6599 55.5551 16.7542 55.5012C18.6223 54.6695 20.4782 53.8074 22.3676 53.0251C23.7153 52.4676 25.162 52.2498 26.6012 52.0541C28.1904 51.8385 29.7789 51.5895 31.3757 51.4684C33.966 51.2703 36.57 51.2475 39.142 51.6831C40.38 51.8934 41.6036 52.2315 42.8035 52.607C44.6495 53.1843 46.5366 53.3527 48.4511 53.374C50.7702 53.3999 53.0892 53.4296 55.4068 53.5096C55.8906 53.5255 56.3667 53.7677 56.8452 53.9094C57.0737 53.9772 57.297 54.1097 57.5255 54.1173C58.2272 54.1387 58.8504 54.3138 59.344 54.8874C59.8484 54.4418 60.3969 54.1158 61.0498 54.0183C61.7165 53.9178 62.3328 54.0457 62.8844 54.4806C63.0367 54.3931 63.1891 54.307 63.3354 54.2141C64.2191 53.6626 65.1311 53.5484 66.1154 53.9597C66.455 54.0919 66.8176 54.1553 67.182 54.1463C68.3903 54.1303 68.7423 54.3367 69.21 55.4373C69.2254 55.472 69.2432 55.5056 69.2634 55.5378C69.546 56.0184 69.5681 56.0443 69.111 56.4137C68.3248 57.0504 67.5172 57.6628 66.7028 58.2645C64.3702 59.9906 62.158 61.8737 60.0815 63.9006C59.9101 64.0674 59.7608 64.2586 59.6031 64.4398C58.9921 65.1451 58.2858 65.7179 57.3922 66.0439C55.531 66.7293 53.6888 67.4613 51.8147 68.1056C50.4334 68.5801 49.0027 68.9122 47.6146 69.3699C46.5587 69.7175 45.5212 70.1186 44.5062 70.5718C42.8957 71.2915 41.3316 71.1758 39.7317 70.533C37.2481 69.536 34.7568 68.5527 32.2465 67.6281C30.271 66.8992 28.2681 66.2419 26.2637 65.5945C25.1095 65.2213 23.9157 65.3447 22.6647 65.5305C22.8552 65.7011 23.0456 65.8755 23.2361 66.0416C26.5159 68.849 30.156 71.041 34.2159 72.5368C36.5821 73.4234 39.041 74.0399 41.5457 74.3747C43.7886 74.6641 46.0406 74.6793 48.2972 74.5864C50.6344 74.4827 52.9525 74.1153 55.2072 73.4912C59.3401 72.3681 63.2228 70.4728 66.6502 67.9053C69.3318 65.9189 71.7094 63.5522 73.708 60.8799C76.3252 57.3904 78.2399 53.4261 79.3457 49.207C80.0184 46.6556 80.442 44.0698 80.3948 41.4231C80.3674 39.8914 80.3948 38.3514 80.234 36.8319C79.9369 34.0573 79.2797 31.3331 78.2791 28.7281C75.6745 21.9927 71.0029 16.2551 64.9345 12.3384C62.2854 10.634 59.4111 9.30786 56.3949 8.39842C54.4712 7.81729 52.5095 7.37554 50.5157 7.16456C48.9463 6.99929 47.3548 7.01604 45.7724 7.00157C41.714 6.96425 37.8202 7.83328 34.0468 9.26288C31.5433 10.2142 29.2082 11.496 26.9981 13.0124C24.3804 14.8016 22.0277 16.9505 20.0096 19.3957C17.9184 21.9411 16.2037 24.7736 14.9182 27.8065C13.998 29.9412 13.3032 32.1661 12.8452 34.445C12.4805 36.3293 12.2632 38.2392 12.1953 40.1573C12.1862 40.3896 12.1504 40.6203 12.1268 40.8511H12.027C12.0178 40.7224 12.0003 40.5937 12.0003 40.465C11.9858 37.0924 12.5069 33.7983 13.4798 30.572C14.4644 27.2984 15.9465 24.1956 17.8742 21.3722C19.9783 18.2762 22.56 15.5333 25.5232 13.2455C27.6363 11.6111 29.9344 10.2307 32.3699 9.13264C35.175 7.85443 38.1389 6.95787 41.1823 6.4669C43.9318 6.02896 46.6973 5.87815 49.4689 6.10436C52.7574 6.3636 55.9945 7.07349 59.0896 8.2141C64.1658 10.0938 68.548 13.0208 72.2894 16.9075C75.861 20.6189 78.4681 24.9374 80.1449 29.8035C80.9164 32.0232 81.4541 34.3172 81.7494 36.6484C81.8598 37.5372 81.9177 38.4329 82 39.3255V43.0576C81.9002 44.0241 81.8202 44.9929 81.6953 45.9518C81.3313 48.7593 80.609 51.5086 79.5461 54.1326C78.3223 57.2024 76.6596 60.0786 74.61 62.6713C71.4362 66.6806 67.601 69.8878 63.0299 72.1918C60.5493 73.4424 57.9666 74.4325 55.259 75.048C53.8481 75.3678 52.4051 75.5552 50.9713 75.7662C50.1851 75.8819 49.3874 75.9185 48.5951 75.9947L45.2422 76ZM55.4396 56.486L55.3451 56.5051C55.3572 56.7335 55.3554 56.9624 55.3398 57.1906C55.307 57.4678 55.4197 57.6178 55.6811 57.6049C56.3949 57.5699 57.1118 57.544 57.8181 57.4457C58.1137 57.4038 58.4131 57.2279 58.6614 57.0451C58.8746 56.8912 59.0434 56.6839 59.1509 56.444C59.2584 56.2041 59.3007 55.9401 59.2736 55.6787C59.2464 55.4172 59.1509 55.1676 58.9964 54.9548C58.842 54.7421 58.6342 54.5738 58.394 54.4669C57.6649 54.1326 56.8863 54.211 56.1207 54.2735C55.8459 54.2988 55.5785 54.3764 55.3329 54.502C55.2217 54.5583 55.1173 54.7823 55.1356 54.9125C55.2102 55.4357 55.3352 55.9613 55.4396 56.486ZM62.6497 54.5819C62.3823 54.4883 62.2338 54.4296 62.0799 54.3832C61.2312 54.1455 60.4944 54.4707 59.7661 54.8401C59.5475 54.9521 59.4758 55.0816 59.5185 55.352C59.6709 56.304 59.5345 57.1548 58.5281 57.6133C58.4148 57.6708 58.3088 57.7419 58.2127 57.825C57.5682 58.3414 56.8284 58.6384 56.0292 58.8304C55.7242 58.9017 55.4382 59.0384 55.1912 59.231C54.4956 59.7976 53.8321 60.4047 53.1593 61.0003C53.1052 61.0483 53.0771 61.1259 52.991 61.2638C53.9494 61.014 54.8834 60.9713 55.6437 60.413C56.5298 59.7626 57.3998 59.0886 58.2645 58.4099C59.2191 57.6605 60.176 56.9133 61.0986 56.125C61.622 55.684 62.0799 55.1577 62.649 54.585L62.6497 54.5819ZM50.5911 61.7033L50.6795 61.8236C51.2509 61.6804 51.8223 61.5448 52.3906 61.3864C52.498 61.356 52.591 61.2432 52.671 61.1511C53.0519 60.7177 53.4168 60.2714 53.8031 59.8426C54.0172 59.6042 54.2602 59.3917 54.4888 59.1678C54.0448 59.1439 53.5995 59.1728 53.1624 59.2538C52.9475 59.2904 52.6702 59.314 52.5415 59.4541C51.871 60.1846 51.2379 60.95 50.5911 61.7033ZM64.8134 57.0268L64.9444 57.1098C65.077 57.0085 65.2324 56.927 65.3391 56.8052C65.8434 56.221 66.3295 55.6208 66.8346 55.0374C67.0593 54.7784 66.977 54.6033 66.7538 54.4007C66.5306 54.1981 66.3158 54.1927 66.1443 54.4388C65.7177 55.0633 65.2911 55.6886 64.9079 56.3428C64.8027 56.5226 64.8423 56.7945 64.8134 57.0268ZM69.4051 55.9003C68.7118 55.6376 66.8399 56.8905 66.7287 57.7511C67.8075 57.3269 68.5846 56.6148 69.4051 55.9003Z" fill="#EF1F1A"/>
<path d="M61.686 49.0902C61.7074 48.9967 61.7184 48.8993 61.752 48.8102C61.9997 48.1558 62.0007 47.492 61.8137 46.8277C61.6335 46.189 61.3314 45.6156 60.8251 45.1689C60.4827 44.8674 60.0984 44.7163 59.6374 44.8511C59.5905 44.8599 59.543 44.865 59.4952 44.8662C59.59 44.698 59.7373 44.6405 59.8904 44.6085C60.2933 44.524 60.6507 44.6458 60.9735 44.8809C61.492 45.2601 61.8247 45.7717 62.0463 46.3693C62.2242 46.8435 62.2933 47.3516 62.2487 47.8561C62.2096 48.2976 62.0487 48.6896 61.7888 49.0442L61.686 49.0902Z" fill="#EF1F1A"/>
<path d="M62.7453 42.3559C62.5444 42.2937 62.3453 42.2244 62.1422 42.1703C61.3786 41.9676 60.6496 42.0541 59.9698 42.4628C59.6588 42.6493 59.3893 42.8854 59.2138 43.2122C59.085 43.4517 59.0428 43.7028 59.1107 43.9698C59.1205 44.0294 59.1263 44.0897 59.1281 44.1501C58.9573 44.0393 58.9113 43.8868 58.885 43.7363C58.8039 43.2757 58.9894 42.8905 59.2989 42.5798C60.0852 41.7904 61.0278 41.5652 62.0897 41.9011C62.3022 41.968 62.4888 42.1162 62.6878 42.2274L62.7453 42.3559Z" fill="#EF1F1A"/>
<path d="M38.4913 25.5018C38.5327 25.7634 38.5712 26.0253 38.6155 26.2864C38.7117 26.8566 38.9627 27.3565 39.3196 27.8061C39.469 27.9947 39.6227 28.1798 39.7746 28.3664L39.7483 28.4068C39.6575 28.3604 39.5579 28.326 39.4772 28.2655C39.0051 27.9063 38.6669 27.4508 38.4838 26.8807C38.3453 26.4491 38.3012 26.0167 38.4241 25.575C38.4273 25.5641 38.4173 25.5494 38.4137 25.5365L38.4913 25.5018Z" fill="#EF1F1A"/>
<path d="M44.2629 47.7087C44.0365 47.7541 43.812 47.8101 43.5827 47.8428C42.7945 47.9546 41.9934 47.9377 41.2105 47.7929C39.9349 47.559 38.7264 47.0467 37.6713 46.2926C37.0101 45.8282 36.4106 45.2816 35.8874 44.6659C35.1096 43.7478 34.5225 42.6841 34.1601 41.5369C33.7968 40.3984 33.6926 39.2295 33.781 38.0411C33.9106 36.291 34.4719 34.6815 35.3633 33.179C35.8582 32.3347 36.4634 31.5602 37.163 30.8759C37.5866 30.4652 38.0477 30.0916 38.5044 29.7163C39.0364 29.282 39.6179 28.9121 40.2368 28.6144C40.7708 28.3547 41.3087 28.0955 41.8656 27.8931C42.3856 27.7042 42.9277 27.5661 43.4693 27.4483C44.7363 27.1747 46.0426 27.1343 47.3242 27.3289C48.8279 27.5445 50.2591 28.1138 51.5 28.99C52.3016 29.552 52.9971 30.2519 53.5539 31.057C53.9443 31.6203 54.2864 32.2122 54.5303 32.8526C54.7447 33.401 54.9043 33.9692 55.0068 34.549C55.1431 35.3544 55.1717 36.1743 55.0918 36.9872C55.0748 37.1663 55.035 37.3429 55.0054 37.5208L54.9676 37.5189C54.9643 37.4668 54.9568 37.4143 54.959 37.3618C54.9847 36.6326 54.9615 35.9062 54.859 35.1825C54.7228 34.1944 54.4135 33.238 53.9452 32.3573C53.1306 30.8333 51.9671 29.6454 50.4319 28.8269C48.8966 28.0084 47.2616 27.6573 45.5355 27.6995C44.5591 27.723 43.608 27.8936 42.6709 28.1635C41.9198 28.3799 41.2064 28.6901 40.5163 29.0449C40.0038 29.3085 39.521 29.635 39.0445 29.9606C38.3022 30.4676 37.648 31.0783 37.0513 31.7503C36.3831 32.5034 35.8163 33.3408 35.3655 34.2411C34.9535 35.0527 34.6472 35.9138 34.454 36.8034C34.2836 37.5786 34.2116 38.3722 34.2395 39.1655C34.2661 39.8352 34.3441 40.4979 34.5256 41.1431C34.6918 41.7429 34.9204 42.3235 35.2079 42.8755C36.0307 44.4648 37.3089 45.7726 38.879 46.6318C39.8989 47.1992 40.9876 47.5545 42.148 47.6767C42.8043 47.7464 43.4623 47.7295 44.1189 47.6593C44.163 47.6544 44.2082 47.6521 44.2512 47.6495L44.2629 47.7087Z" fill="#EF1F1A"/>
<path d="M51.2069 44.97C51.3522 44.8653 51.5002 44.764 51.6421 44.6549C52.2362 44.1987 52.6869 43.6383 52.864 42.8964C53.005 42.3056 52.9851 41.7128 52.8583 41.1184C52.7762 40.7337 52.6487 40.3602 52.4787 40.0054C52.0125 39.032 51.3314 38.2449 50.443 37.6308C50.0346 37.3491 49.591 37.1223 49.1235 36.9561C48.6357 36.787 48.122 36.7046 47.6058 36.7127C47.2566 36.7146 46.908 36.747 46.5592 36.7641C46.5211 36.7641 46.483 36.7617 46.4452 36.7568C46.4427 36.7416 46.4401 36.7261 46.4373 36.7109C46.6103 36.6564 46.7806 36.5819 46.9571 36.5505C48.101 36.3457 49.1888 36.5062 50.2165 37.0615C50.9323 37.4484 51.5519 37.9484 52.0607 38.5833C52.4573 39.0777 52.7795 39.6125 53.0024 40.2117C53.294 40.9953 53.4091 41.7947 53.2657 42.6181C53.0708 43.7375 52.4202 44.5073 51.3907 44.9674C51.3391 44.9855 51.286 44.9989 51.232 45.0075L51.2069 44.97Z" fill="#EF1F1A"/>
<path d="M50.4916 45.4584C50.3038 45.5248 50.1136 45.4855 49.9292 45.4477C49.5627 45.3724 49.2461 45.1926 49.0477 44.8739C48.8736 44.5951 48.7673 44.2793 48.7375 43.9519C48.6788 43.3243 48.7425 42.7012 48.7981 42.0787C48.8631 41.3504 48.8214 40.6317 48.6093 39.9326C48.4604 39.4404 48.2572 38.968 47.9634 38.538C47.6784 38.1208 47.3463 37.756 46.8953 37.5172C46.7554 37.4431 46.6013 37.3957 46.4519 37.341C46.4074 37.3296 46.3619 37.323 46.316 37.3212L46.3306 37.245C46.4273 37.244 46.5256 37.2313 46.6206 37.2437C47.1223 37.309 47.5159 37.5775 47.8663 37.9224C48.2989 38.3514 48.6345 38.8681 48.8506 39.4377C49.1689 40.2506 49.2884 41.1277 49.199 41.996C49.1408 42.5858 49.1059 43.1787 49.0805 43.7708C49.0652 44.1296 49.1301 44.4824 49.3434 44.7834C49.5914 45.1311 49.9541 45.2944 50.3596 45.3792C50.4066 45.3891 50.4522 45.4054 50.4983 45.419L50.4916 45.4584Z" fill="#EF1F1A"/>
<path d="M55.3159 43.2456C55.0493 43.2503 54.8462 43.1249 54.6654 42.9636C54.2103 42.5604 54.0217 42.0365 53.9996 41.4416C53.9606 40.3891 54.331 39.4739 54.9654 38.6555C55.4787 37.9897 56.168 37.4808 56.9555 37.1864C57.4323 37.0042 57.9298 36.8953 58.4464 36.912C58.5286 36.919 58.6103 36.9308 58.6911 36.9473L58.6965 36.9933C58.5927 37.019 58.4896 37.0478 58.3854 37.0706C57.811 37.1932 57.2546 37.3648 56.74 37.6562C55.6369 38.2804 54.879 39.1904 54.5036 40.4012C54.3345 40.9459 54.276 41.5059 54.4305 42.0721C54.5488 42.5041 54.7917 42.8446 55.1489 43.1081C55.206 43.1522 55.2601 43.2002 55.3159 43.2456Z" fill="#EF1F1A"/>
<path d="M51.1603 46.8743C51.3328 47.2083 51.3136 47.5521 51.1931 47.898C51.0052 48.4363 50.5997 48.7579 50.0932 48.9673C48.9325 49.4449 47.7864 49.32 46.6587 48.8516C46.0948 48.6187 45.5845 48.2728 45.1592 47.8351C44.8218 47.4882 44.5336 47.1044 44.3413 46.6559C44.3123 46.5784 44.2873 46.4994 44.2663 46.4193L44.3063 46.3934C44.4051 46.5158 44.5072 46.6358 44.602 46.7615C45.5033 47.9562 46.6883 48.6681 48.1802 48.8392C48.858 48.9169 49.5217 48.8432 50.1525 48.5544C50.7955 48.2599 51.1206 47.7537 51.1071 47.0464C51.1059 46.9893 51.1126 46.9317 51.1154 46.8746L51.1603 46.8743Z" fill="#EF1F1A"/>
<path d="M59.0446 44.7703C58.8506 44.7503 58.658 44.7334 58.4655 44.7084C57.3448 44.5617 56.2262 44.5288 55.1005 44.6729C54.3225 44.7692 53.5548 44.9363 52.8072 45.1722C52.1852 45.371 51.5818 45.6274 50.9705 45.859L50.5459 46.0198L50.5191 45.9744C50.6239 45.8894 50.7208 45.7917 50.8349 45.7213C51.3451 45.4085 51.8705 45.1295 52.4364 44.9219C52.9863 44.7205 53.5402 44.5389 54.1145 44.4302C54.5395 44.3451 54.9684 44.2814 55.3998 44.2394C56.4983 44.1441 57.584 44.2269 58.6448 44.5432C58.7874 44.5862 58.9246 44.6509 59.0642 44.7058L59.0446 44.7703Z" fill="#EF1F1A"/>
<path d="M56.067 43.4597C56.2108 43.4612 56.3549 43.4634 56.499 43.4643C57.6186 43.4728 58.3559 42.8869 58.8206 41.9248C59.2393 41.0591 59.3014 40.1345 59.1782 39.1888C59.1127 38.6858 58.9767 38.2031 58.814 37.7256C58.7855 37.6419 58.7684 37.5545 58.7474 37.4683C58.7446 37.4621 58.7549 37.4526 58.7757 37.4116C58.8558 37.5219 58.9417 37.6118 58.9984 37.7172C59.2958 38.269 59.5032 38.8535 59.5722 39.4787C59.698 40.6185 59.5548 41.7046 58.8406 42.6487C58.4877 43.1148 58.0472 43.4841 57.4607 43.6238C57.0319 43.7264 56.6001 43.7359 56.1802 43.568C56.1361 43.5469 56.0935 43.5227 56.0529 43.4957L56.067 43.4597Z" fill="#EF1F1A"/>
<path d="M53.436 45.746C53.3554 45.8897 53.2966 45.9956 53.2364 46.1008C52.7755 46.9048 52.8992 47.6681 53.4267 48.3822C54.1223 49.3244 55.0788 49.9102 56.1671 50.2892C56.4821 50.3991 56.8216 50.4389 57.1497 50.5112C57.2024 50.5228 57.2549 50.5354 57.3426 50.5557C57.1339 50.6799 56.9382 50.6748 56.748 50.6673C55.9749 50.6373 55.2777 50.366 54.6231 49.9733C54.3741 49.824 54.1145 49.6807 53.8991 49.4901C53.4125 49.06 52.9872 48.578 52.7603 47.9451C52.5174 47.2682 52.604 46.6515 53.0224 46.0756C53.1186 45.9416 53.2259 45.8134 53.436 45.746Z" fill="#EF1F1A"/>
<path d="M54.5629 45.3003C54.7362 45.1948 54.9151 45.1858 55.0947 45.1915C55.967 45.2186 56.6734 45.6079 57.277 46.2093C57.7408 46.6748 58.0833 47.2469 58.2745 47.8755C58.5221 48.6678 58.5779 49.4642 58.2184 50.2445C58.1243 50.4451 58.0119 50.6399 57.7893 50.7573C58.3736 49.5302 58.1869 48.3541 57.5442 47.2322C56.8905 46.0913 55.8993 45.4293 54.5629 45.3003Z" fill="#EF1F1A"/>
<path d="M48.4512 44.2545C48.3487 44.2405 48.2457 44.2294 48.1436 44.2122C47.5389 44.1105 46.9475 44.1528 46.3933 44.4246C45.9504 44.6417 45.5658 44.9486 45.2256 45.3064C45.0491 45.4917 44.8827 45.6867 44.7089 45.8751C44.6672 45.9153 44.6229 45.9528 44.5765 45.9873C44.5635 45.979 44.5502 45.9707 44.5371 45.9627C44.5587 45.8858 44.5842 45.8101 44.6135 45.7358C44.8877 45.1302 45.3297 44.6613 45.8739 44.3024C46.5701 43.8434 47.3288 43.7082 48.1313 44.011C48.2511 44.0561 48.3595 44.1329 48.473 44.1951L48.4512 44.2545Z" fill="#EF1F1A"/>
<path d="M61.303 48.6476C61.2121 48.6402 61.1124 48.6545 61.0319 48.6214C60.7813 48.5197 60.5257 48.4205 60.2944 48.2827C59.794 47.9852 59.3746 47.5879 59.0762 47.0884C58.8082 46.6395 58.6644 46.1511 58.8635 45.626C58.9044 45.5152 58.9471 45.399 59.0948 45.3376C59.0873 45.4085 59.0869 45.458 59.0777 45.5062C58.9745 46.0341 59.1118 46.5032 59.4133 46.938C59.878 47.6115 60.5027 48.0995 61.1933 48.5162C61.2353 48.541 61.274 48.5696 61.3142 48.5961L61.303 48.6476Z" fill="#EF1F1A"/>
<path d="M33.2206 30.1141C33.9216 29.9473 34.5685 30.1041 35.1685 30.4891C35.676 30.8149 36.0515 31.263 36.0314 31.5221C35.6256 31.1526 35.2204 30.812 34.741 30.5725C34.2617 30.3331 33.7297 30.2696 33.2047 30.1903L33.2206 30.1141Z" fill="#EF1F1A"/>
<path d="M62.3662 42.7021C62.4969 43.0446 62.2577 43.6317 61.847 43.9782C61.4815 44.2865 60.8971 44.379 60.5686 44.1388C60.6579 44.1081 60.7252 44.0753 60.7935 44.0632C61.2567 43.9796 61.6527 43.7837 61.924 43.3849C62.0339 43.2232 62.1278 43.0504 62.2317 42.8847C62.2666 42.829 62.3096 42.7783 62.3662 42.7021Z" fill="#EF1F1A"/>
<path d="M33.777 29.6418C33.8949 29.3158 34.1546 29.1255 34.4682 29.022C34.8815 28.8854 35.2917 28.8923 35.6594 29.1588L35.6595 29.2106C35.5914 29.2178 35.5229 29.221 35.4544 29.2202C35.1165 29.1985 34.779 29.1914 34.4623 29.3327C34.2967 29.4067 34.1417 29.5035 33.9817 29.5892C33.9225 29.6209 33.8619 29.6501 33.8021 29.6806C33.7939 29.6679 33.7853 29.6548 33.777 29.6418Z" fill="#EF1F1A"/>
<path d="M38.0667 25.9026C37.915 26.1937 37.7234 26.4674 37.6279 26.771C37.5324 27.0747 37.5334 27.4079 37.4874 27.7671C37.2517 27.4407 37.2479 27.1075 37.3195 26.7655C37.4144 26.3101 37.7994 25.8959 38.0667 25.9026Z" fill="#EF1F1A"/>
<path d="M37.0401 27.8261C36.8319 27.5537 36.6839 27.2421 36.3619 27.1698C36.064 27.1028 35.7504 27.1057 35.4473 27.0783C35.549 26.8679 36.0794 26.7677 36.4535 26.8972C36.8275 27.0267 37.1256 27.4622 37.0401 27.8261Z" fill="#EF1F1A"/>
<path d="M35.8182 28.8772C35.5334 28.9619 35.1206 28.649 35.0042 28.3087C34.8591 27.8844 34.9893 27.3411 35.2844 27.194C35.27 27.3066 35.2607 27.4045 35.2444 27.5012C35.1969 27.7852 35.161 28.0733 35.3239 28.3292C35.4195 28.4795 35.5549 28.605 35.6746 28.7396C35.7137 28.7842 35.7589 28.8204 35.8182 28.8772Z" fill="#EF1F1A"/>
<path d="M22.5382 39.6707C22.5254 39.7378 22.4944 39.7909 22.4452 39.8302C22.3906 39.8615 22.3298 39.8708 22.2627 39.8581L15.6918 38.6085C15.618 38.5945 15.5648 38.5635 15.5322 38.5156C15.4942 38.4597 15.4815 38.3983 15.4943 38.3312L15.59 37.8282C15.6053 37.7477 15.6369 37.6912 15.6848 37.6586C15.7327 37.626 15.7707 37.6089 15.7989 37.6073L20.27 36.2477L16.6124 33.3319C16.5881 33.3134 16.559 33.2835 16.5251 33.2423C16.4925 33.1944 16.4839 33.1302 16.4992 33.0498L16.593 32.5568C16.607 32.4831 16.6414 32.4305 16.696 32.3992C16.7452 32.3599 16.8066 32.3473 16.8804 32.3613L23.4514 33.6109C23.5184 33.6236 23.571 33.658 23.609 33.7138C23.6416 33.7617 23.6509 33.8226 23.6369 33.8963L23.5431 34.3893C23.5303 34.4563 23.4993 34.5095 23.4502 34.5488C23.3955 34.5801 23.3347 34.5894 23.2676 34.5766L18.3168 33.6351L21.2775 35.939C21.3395 35.9786 21.3855 36.029 21.4156 36.0903C21.4389 36.1503 21.4429 36.2206 21.4276 36.3011L21.3683 36.6129C21.3517 36.7001 21.3215 36.7673 21.2778 36.8146C21.2286 36.8539 21.1673 36.8839 21.0938 36.9047L17.4937 37.9609L22.4445 38.9024C22.5116 38.9151 22.5642 38.9494 22.6022 39.0053C22.6348 39.0532 22.6447 39.1107 22.632 39.1778L22.5382 39.6707Z" fill="#EF1F1A"/>
<path d="M24.1985 32.6144C24.1654 32.6818 24.1214 32.7249 24.0666 32.7436C24.0056 32.7593 23.9445 32.752 23.8832 32.7219L17.8799 29.7732C17.8125 29.74 17.7695 29.6961 17.7508 29.6412C17.7259 29.5834 17.7301 29.5208 17.7632 29.4534L19.6287 25.6576C19.6619 25.5902 19.7089 25.5486 19.7699 25.533C19.8247 25.5143 19.8858 25.5215 19.9533 25.5546L20.3026 25.7262C20.37 25.7593 20.4131 25.8033 20.4318 25.8581C20.4505 25.9129 20.4433 25.974 20.4102 26.0414L18.8744 29.1663L20.8877 30.1552L22.3241 27.2326C22.3573 27.1652 22.4043 27.1236 22.4653 27.1079C22.5201 27.0892 22.5812 27.0965 22.6487 27.1296L22.9888 27.2967C23.0501 27.3268 23.0932 27.3707 23.118 27.4286C23.1367 27.4834 23.1295 27.5445 23.0964 27.6119L21.66 30.5346L23.7468 31.5597L25.3188 28.3613C25.3519 28.2939 25.3959 28.2508 25.4507 28.2321C25.5056 28.2134 25.5667 28.2206 25.6341 28.2537L25.9927 28.4298C26.0539 28.46 26.097 28.5039 26.1218 28.5618C26.1405 28.6166 26.1333 28.6777 26.1002 28.7451L24.1985 32.6144Z" fill="#EF1F1A"/>
<path d="M26.7948 27.7901C26.7479 27.8487 26.6957 27.8813 26.6381 27.8877C26.5752 27.8899 26.517 27.8697 26.4637 27.827L21.2303 23.6464C21.1769 23.6038 21.147 23.5537 21.1406 23.4961C21.1288 23.4343 21.1464 23.374 21.1933 23.3154L21.5322 22.8914C21.5748 22.838 21.6276 22.8103 21.6905 22.8081C21.7481 22.8017 21.8036 22.8198 21.8569 22.8624L26.5782 26.6339L28.7075 23.9699C28.7544 23.9113 28.8093 23.8809 28.8722 23.8787C28.9298 23.8723 28.9879 23.8925 29.0466 23.9394L29.3667 24.1951C29.42 24.2377 29.4526 24.2899 29.4643 24.3517C29.4708 24.4093 29.4505 24.4674 29.4037 24.5261L26.7948 27.7901Z" fill="#EF1F1A"/>
<path d="M31.741 22.7576C31.2851 23.1168 30.8323 23.3475 30.3825 23.4498C29.9285 23.5467 29.4842 23.5013 29.0493 23.3137C28.6103 23.1207 28.1835 22.7834 27.7689 22.3016C27.5776 22.0699 27.3974 21.8468 27.2283 21.6324C27.055 21.4125 26.878 21.1825 26.6974 20.9424C26.33 20.4322 26.1085 19.9417 26.033 19.471C25.9587 18.9907 26.0217 18.5412 26.2221 18.1226C26.4236 17.6944 26.7415 17.3091 27.1759 16.9668C27.6157 16.6203 28.0647 16.4013 28.5229 16.3097C28.9823 16.2086 29.4368 16.2503 29.8866 16.4348C30.3322 16.614 30.7574 16.9439 31.1624 17.4245C31.3591 17.652 31.5441 17.8756 31.7174 18.0955C31.8865 18.3099 32.0586 18.5394 32.2339 18.7837C32.6109 19.2951 32.8392 19.7888 32.919 20.2649C32.9998 20.7314 32.9401 21.174 32.7397 21.5926C32.5351 22.0059 32.2022 22.3942 31.741 22.7576ZM31.202 22.074C31.615 21.7486 31.853 21.3612 31.916 20.9117C31.9844 20.458 31.8116 19.9465 31.3977 19.3774C31.2182 19.1276 31.0545 18.9089 30.9065 18.7213C30.7544 18.5283 30.5799 18.318 30.3832 18.0905C30.0809 17.729 29.7744 17.4837 29.4639 17.3546C29.1588 17.2212 28.8594 17.1833 28.5657 17.2408C28.272 17.2984 27.9884 17.435 27.7149 17.6505C27.4521 17.8575 27.2583 18.0971 27.1337 18.3691C27.0091 18.6411 26.9733 18.9432 27.0263 19.2751C27.0847 19.6029 27.2517 19.9581 27.5273 20.3407C27.7079 20.5809 27.8743 20.7974 28.0264 20.9905C28.1744 21.1781 28.3461 21.3905 28.5417 21.6276C28.9985 22.1629 29.4556 22.4504 29.9128 22.49C30.37 22.5296 30.7998 22.3909 31.202 22.074Z" fill="#EF1F1A"/>
<path d="M36.9028 19.6675C36.3527 19.9094 35.8385 20.0124 35.3602 19.9766C34.8882 19.9381 34.4666 19.7766 34.0954 19.4924C33.7304 19.2054 33.424 18.8143 33.1763 18.3191C33.0491 18.0469 32.9182 17.7577 32.7834 17.4515C32.646 17.1391 32.5185 16.8408 32.401 16.5569C32.2034 16.0397 32.1234 15.5528 32.1612 15.0962C32.2053 14.6368 32.3758 14.2187 32.6726 13.8421C32.9694 13.4655 33.3897 13.1576 33.9336 12.9185C34.3774 12.7234 34.7893 12.6168 35.1693 12.5989C35.5493 12.5809 35.8851 12.6235 36.1766 12.7265C36.4716 12.8205 36.7145 12.9487 36.9052 13.1109C37.1022 13.2704 37.2382 13.4269 37.3132 13.5804C37.3442 13.6339 37.3492 13.6876 37.3282 13.7416C37.3044 13.7893 37.2613 13.8269 37.1988 13.8544L36.6456 14.0977C36.5831 14.1251 36.5307 14.1333 36.4884 14.122C36.4524 14.108 36.4082 14.0752 36.3557 14.0237C36.228 13.886 36.0641 13.7679 35.8641 13.6694C35.6703 13.5681 35.4421 13.5156 35.1793 13.5118C34.92 13.499 34.6216 13.5668 34.2841 13.7153C33.7903 13.9324 33.4493 14.2427 33.2613 14.646C33.0794 15.0467 33.1121 15.5618 33.3593 16.1915C33.5852 16.7559 33.8299 17.3121 34.0933 17.86C34.3933 18.4739 34.7569 18.851 35.1841 18.9913C35.6086 19.1253 36.0678 19.0838 36.5616 18.8666C36.8929 18.721 37.1606 18.5324 37.3646 18.301C37.5722 18.0606 37.6946 17.7793 37.7319 17.4571C37.7692 17.1349 37.7013 16.777 37.5281 16.3833L37.3548 15.9896L35.9484 16.608C35.8859 16.6355 35.8245 16.6401 35.7643 16.6219C35.7075 16.5946 35.664 16.5466 35.6338 16.4779L35.5018 16.1779C35.4716 16.1092 35.467 16.0478 35.488 15.9938C35.5125 15.9309 35.556 15.8856 35.6185 15.8581L37.7375 14.9264C37.8063 14.8962 37.869 14.8947 37.9258 14.9219C37.9798 14.9429 38.0219 14.9878 38.0522 15.0565L38.4481 15.9564C38.6735 16.4688 38.7638 16.9624 38.719 17.437C38.6804 17.9089 38.5078 18.339 38.2013 18.7274C37.8919 19.1095 37.4591 19.4229 36.9028 19.6675Z" fill="#EF1F1A"/>
<path d="M40.3789 18.2577C40.3047 18.2696 40.2441 18.2585 40.1972 18.2245C40.1492 18.1838 40.1198 18.1297 40.1091 18.0623L39.0546 11.459C39.0427 11.3849 39.0538 11.3243 39.0878 11.2774C39.1208 11.2238 39.1743 11.191 39.2485 11.1792L41.7165 10.7853C42.4785 10.6637 43.1106 10.746 43.6127 11.0323C44.1148 11.3185 44.4219 11.8122 44.5338 12.5133C44.6167 13.0324 44.5531 13.4781 44.3428 13.8504C44.1382 14.2149 43.8237 14.4967 43.399 14.6958L45.3863 17.137C45.413 17.1743 45.429 17.2097 45.4344 17.2434C45.443 17.2974 45.427 17.3483 45.3862 17.3963C45.3522 17.4432 45.3082 17.471 45.2543 17.4796L44.7688 17.5571C44.6541 17.5754 44.565 17.5585 44.5014 17.5064C44.4377 17.4544 44.3808 17.4012 44.3307 17.347L42.4538 15.0126L40.6837 15.2951L41.1003 17.9041C41.1111 17.9715 41.0967 18.0325 41.057 18.0873C41.023 18.1342 40.9689 18.1635 40.8947 18.1754L40.3789 18.2577ZM40.5465 14.4356L42.2154 14.1692C42.7212 14.0885 43.0821 13.9237 43.2983 13.6749C43.5133 13.4194 43.5875 13.0826 43.5207 12.6646C43.455 12.2534 43.2802 11.9598 42.9963 11.7839C42.7191 11.607 42.3242 11.5594 41.8117 11.6412L40.1427 11.9075L40.5465 14.4356Z" fill="#EF1F1A"/>
<path d="M45.6311 17.4585C45.5767 17.4535 45.531 17.4287 45.4939 17.3842C45.4569 17.3397 45.4408 17.2902 45.4459 17.2358C45.449 17.2018 45.4558 17.1647 45.4664 17.1246L48.6034 10.7598C48.6369 10.6943 48.6793 10.6434 48.7306 10.607C48.782 10.5706 48.8553 10.5567 48.9505 10.5655L49.6441 10.6293C49.7325 10.6375 49.7986 10.6641 49.8424 10.7093C49.8931 10.7551 49.9289 10.8132 49.9498 10.8837L51.8618 17.7131C51.8716 17.7551 51.875 17.7931 51.8718 17.8271C51.8668 17.8815 51.842 17.9272 51.7975 17.9643C51.7529 18.0013 51.7035 18.0173 51.6491 18.0123L51.1289 17.9644C51.0473 17.9569 50.9879 17.9309 50.9509 17.8864C50.9207 17.8424 50.9003 17.8029 50.8898 17.7676L50.4621 16.268L47.1165 15.9601L46.4222 17.3565C46.4123 17.3899 46.3851 17.4251 46.3405 17.4621C46.296 17.4991 46.2329 17.5139 46.1513 17.5064L45.6311 17.4585ZM47.4931 15.1104L50.2471 15.3638L49.2034 11.6171L47.4931 15.1104Z" fill="#EF1F1A"/>
<path d="M52.0429 18.1939C51.9723 18.1683 51.9247 18.1293 51.9002 18.0768C51.8779 18.0179 51.8785 17.9564 51.9017 17.8922L54.182 11.6059C54.2076 11.5353 54.2467 11.4878 54.2992 11.4632C54.354 11.4322 54.4167 11.4296 54.4873 11.4552L54.9303 11.6158C55.0073 11.6437 55.0581 11.6839 55.0827 11.7364C55.1095 11.7824 55.1227 11.8162 55.1221 11.8378L56.5382 17.9065L58.2842 13.0931C58.3098 13.0225 58.3489 12.9749 58.4013 12.9504C58.4562 12.9194 58.5189 12.9168 58.5895 12.9424L59.0517 13.1099C59.1223 13.1355 59.1687 13.1778 59.191 13.2367C59.2219 13.2915 59.2246 13.3542 59.199 13.4248L56.9222 19.7014C56.8989 19.7656 56.8567 19.812 56.7954 19.8406C56.7406 19.8716 56.6811 19.8754 56.6169 19.8522L56.1547 19.6846C56.0841 19.659 56.0365 19.62 56.0119 19.5675C55.9938 19.5173 55.9807 19.4835 55.9725 19.466L54.5486 13.449L52.8165 18.2239C52.7933 18.288 52.751 18.3344 52.6898 18.3631C52.6373 18.3876 52.5757 18.3871 52.5051 18.3615L52.0429 18.1939Z" fill="#EF1F1A"/>
<path d="M59.7079 21.9229C59.2315 21.5913 58.879 21.2253 58.6504 20.8249C58.4256 20.4188 58.3398 19.9805 58.3929 19.5101C58.4499 19.034 58.6487 18.5276 58.9892 17.991C59.1553 17.7406 59.3164 17.5034 59.4725 17.2793C59.6325 17.0496 59.8011 16.8134 59.9784 16.5708C60.3599 16.071 60.7649 15.7166 61.1934 15.5075C61.6315 15.2967 62.08 15.2262 62.5389 15.2961C63.0073 15.3643 63.4685 15.5564 63.9224 15.8724C64.3819 16.1923 64.7221 16.5581 64.943 16.9698C65.1733 17.3797 65.2656 17.8266 65.2198 18.3105C65.1779 18.7888 64.9858 19.2915 64.6436 19.8186C64.4831 20.0729 64.3229 20.3149 64.1629 20.5446C64.0068 20.7687 63.8373 21.0001 63.6544 21.2388C63.2747 21.7481 62.8686 22.1101 62.4361 22.3248C62.0131 22.5378 61.5722 22.6094 61.1133 22.5395C60.6583 22.4639 60.1898 22.2584 59.7079 21.9229ZM60.2054 21.2086C60.6369 21.509 61.0769 21.624 61.5254 21.5536C61.9795 21.487 62.4187 21.173 62.8431 20.6116C63.0299 20.3673 63.1916 20.1471 63.3282 19.951C63.4687 19.7493 63.6192 19.5214 63.7796 19.267C64.0377 18.8727 64.1834 18.5082 64.2167 18.1737C64.2556 17.8431 64.2048 17.5457 64.0643 17.2815C63.9238 17.0173 63.7106 16.7857 63.4248 16.5867C63.1503 16.3956 62.8647 16.2799 62.5681 16.2398C62.2715 16.1997 61.972 16.2533 61.6697 16.4006C61.373 16.5518 61.0817 16.8148 60.7956 17.1896C60.6183 17.4322 60.4594 17.6544 60.3189 17.8561C60.1823 18.0521 60.029 18.2782 59.859 18.5342C59.4795 19.1268 59.3373 19.6476 59.4324 20.0964C59.5274 20.5453 59.7851 20.916 60.2054 21.2086Z" fill="#EF1F1A"/>
<path d="M65.8293 28.1689C65.4864 27.6756 65.2866 27.1908 65.2301 26.7147C65.1775 26.2441 65.2551 25.7995 65.463 25.3808C65.6748 24.9676 66 24.5921 66.4386 24.2541C66.6815 24.0771 66.9403 23.8932 67.2151 23.7023C67.4955 23.5075 67.7638 23.3253 68.02 23.1556C68.4898 22.8625 68.9525 22.6907 69.4081 22.6402C69.8675 22.5954 70.3106 22.6825 70.7372 22.9016C71.1639 23.1206 71.5467 23.474 71.8857 23.9617C72.1624 24.3598 72.346 24.7435 72.4364 25.113C72.5269 25.4824 72.5495 25.82 72.5042 26.1258C72.4685 26.4332 72.3893 26.6961 72.2665 26.9144C72.1477 27.1382 72.0202 27.3016 71.8839 27.4046C71.8373 27.4453 71.7855 27.4605 71.7285 27.4502C71.6771 27.4361 71.6319 27.401 71.5929 27.3449L71.248 26.8488C71.2091 26.7927 71.1911 26.7429 71.194 26.6992C71.2009 26.6612 71.2245 26.6115 71.265 26.5502C71.3758 26.3984 71.4603 26.215 71.5187 25.9999C71.5809 25.7904 71.5887 25.5563 71.5421 25.2978C71.5049 25.0409 71.3811 24.7611 71.1707 24.4584C70.8629 24.0155 70.4929 23.7405 70.0609 23.6333C69.6327 23.5317 69.1332 23.6625 68.5625 24.0257C68.0517 24.3556 67.5526 24.7023 67.0652 25.0658C66.52 25.4778 66.2195 25.9069 66.1637 26.353C66.1135 26.7952 66.2423 27.2377 66.5501 27.6806C66.7566 27.9778 66.993 28.2043 67.2594 28.3601C67.5352 28.5177 67.8348 28.5839 68.1582 28.5587C68.4817 28.5335 68.82 28.3982 69.1733 28.1528L69.5266 27.9074L68.6499 26.646C68.6109 26.5899 68.5946 26.5306 68.601 26.468C68.6169 26.407 68.6557 26.3552 68.7173 26.3123L68.9865 26.1253C69.0482 26.0825 69.1076 26.0662 69.1646 26.0765C69.2311 26.0884 69.2839 26.1224 69.3228 26.1785L70.6438 28.079C70.6867 28.1407 70.7001 28.202 70.6843 28.2629C70.674 28.3199 70.638 28.3698 70.5763 28.4127L69.7688 28.9737C69.309 29.2931 68.8418 29.4763 68.3672 29.5233C67.8965 29.5759 67.4412 29.4891 67.0011 29.2627C66.5667 29.0325 66.1761 28.6679 65.8293 28.1689Z" fill="#EF1F1A"/>
<path d="M67.8906 31.285C67.8646 31.2145 67.8638 31.153 67.8881 31.1004C67.9188 31.0454 67.9661 31.0061 68.0302 30.9825L74.3066 28.671C74.3771 28.645 74.4386 28.6442 74.4912 28.6684C74.5503 28.6904 74.5928 28.7365 74.6187 28.807L75.4827 31.1516C75.7495 31.8755 75.7909 32.5113 75.6071 33.0592C75.4233 33.6071 74.9982 34.0037 74.3318 34.2492C73.8384 34.4309 73.3887 34.4546 72.9826 34.3204C72.5854 34.1903 72.2479 33.9362 71.9704 33.5583L69.959 35.9797C69.9276 36.0131 69.8959 36.0356 69.8639 36.0474C69.8126 36.0663 69.7595 36.0604 69.7046 36.0297C69.6519 36.0055 69.6162 35.9677 69.5973 35.9165L69.4273 35.4552C69.3872 35.3463 69.3865 35.2556 69.4253 35.1831C69.4641 35.1107 69.5053 35.0446 69.5488 34.9849L71.4767 32.6925L70.857 31.0109L68.3772 31.9242C68.3132 31.9478 68.2504 31.9454 68.189 31.9171C68.1364 31.8928 68.0971 31.8455 68.0712 31.775L67.8906 31.285ZM71.674 30.71L72.2583 32.2955C72.4353 32.7759 72.6668 33.0981 72.9528 33.262C73.2452 33.4235 73.59 33.431 73.9873 33.2847C74.3782 33.1408 74.6325 32.9125 74.7502 32.6C74.8702 32.2939 74.8406 31.8974 74.6612 31.4105L74.0769 29.825L71.674 30.71Z" fill="#EF1F1A"/>
<path d="M69.8998 39.2036C69.8408 38.6263 69.8886 38.1205 70.0433 37.6861C70.2047 37.251 70.4811 36.9002 70.8726 36.6337C71.2709 36.3666 71.7845 36.1871 72.4135 36.0954C72.7117 36.058 72.9967 36.0255 73.2684 35.9977C73.547 35.9692 73.836 35.9431 74.1356 35.9194C74.7634 35.8827 75.2963 35.9586 75.7343 36.1471C76.1798 36.3418 76.5256 36.6358 76.7718 37.0293C77.0254 37.4288 77.1804 37.9037 77.2366 38.4538C77.2936 39.0107 77.2379 39.507 77.0697 39.9428C76.909 40.3847 76.6302 40.746 76.2333 41.0268C75.8432 41.3068 75.3367 41.489 74.7138 41.5732C74.4163 41.6174 74.1283 41.6537 73.8497 41.6821C73.578 41.7099 73.292 41.7323 72.9917 41.7492C72.3578 41.7934 71.8185 41.7216 71.3737 41.5337C70.9364 41.352 70.5946 41.0644 70.3485 40.6709C70.1091 40.2768 69.9596 39.7877 69.8998 39.2036ZM70.766 39.1151C70.8195 39.638 71.0191 40.0465 71.3649 40.3406C71.7115 40.6414 72.236 40.7697 72.9385 40.7253C73.2456 40.7077 73.518 40.6867 73.7557 40.6624C74.0003 40.6374 74.2713 40.6028 74.5689 40.5587C75.0362 40.4972 75.4076 40.37 75.6831 40.1772C75.9592 39.9911 76.1517 39.7587 76.2604 39.48C76.3692 39.2012 76.4059 38.8886 76.3705 38.5423C76.3364 38.2095 76.238 37.9176 76.075 37.6666C75.9121 37.4157 75.6762 37.2236 75.3674 37.0905C75.0593 36.9641 74.6699 36.9147 74.199 36.9422C73.8994 36.966 73.6274 36.9904 73.3828 37.0154C73.145 37.0397 72.8736 37.0708 72.5686 37.1089C71.8717 37.2076 71.384 37.4393 71.1055 37.804C70.8271 38.1687 70.7139 38.6057 70.766 39.1151Z" fill="#EF1F1A"/>
<path d="M69.715 45.326C69.8065 44.7599 69.9865 44.2876 70.2551 43.9091C70.5227 43.5374 70.88 43.2735 71.3272 43.1175C71.78 42.9693 72.3333 42.948 72.9872 43.0535L77.0928 43.7162C77.1669 43.7281 77.221 43.7576 77.2549 43.8046C77.2955 43.8526 77.3099 43.9137 77.2979 43.9878L77.2147 44.5034C77.2027 44.5776 77.1698 44.631 77.1161 44.6639C77.0681 44.7045 77.0069 44.7188 76.9328 44.7069L72.807 44.041C72.1464 43.9343 71.6326 44.0105 71.2657 44.2693C70.8988 44.5282 70.6718 44.9272 70.5847 45.4664C70.4987 45.9988 70.5891 46.4456 70.8559 46.8068C71.1216 47.1747 71.5848 47.4119 72.2454 47.5186L76.3712 48.1845C76.4453 48.1965 76.4994 48.2259 76.5333 48.2729C76.5729 48.3277 76.5872 48.3888 76.5763 48.4562L76.4914 48.9819C76.4805 49.0493 76.4482 49.0994 76.3945 49.1322C76.3464 49.1728 76.2853 49.1872 76.2112 49.1752L72.1056 48.5126C71.4517 48.407 70.9337 48.2093 70.5517 47.9194C70.1753 47.6374 69.9186 47.2779 69.7817 46.8409C69.6447 46.4038 69.6225 45.8989 69.715 45.326Z" fill="#EF1F1A"/>
<path d="M68.9675 49.1406C68.9974 49.0718 69.0394 49.0267 69.0933 49.0055C69.1535 48.987 69.2149 48.9913 69.2775 49.0186L75.4115 51.6848C75.4804 51.7147 75.5255 51.7566 75.5467 51.8105C75.5742 51.8672 75.573 51.9299 75.543 51.9988L74.5057 54.3841C74.3042 54.8474 74.0548 55.2154 73.7574 55.4881C73.4574 55.7672 73.1162 55.9352 72.7339 55.9924C72.3579 56.0523 71.9476 55.9856 71.503 55.7923C71.0583 55.5991 70.7297 55.3446 70.517 55.0288C70.3044 54.7131 70.1978 54.3503 70.1973 53.9407C70.194 53.5373 70.2931 53.1039 70.4946 52.6406L71.2175 50.9784L68.8691 49.9577C68.8064 49.9304 68.7627 49.8854 68.738 49.8225C68.7167 49.7686 68.7211 49.7072 68.751 49.6384L68.9675 49.1406ZM72.0106 51.312L71.3041 52.9367C71.1026 53.3999 71.0548 53.7923 71.1607 54.1138C71.2666 54.4353 71.5169 54.6817 71.9114 54.8532C72.2997 55.022 72.6493 55.04 72.9602 54.9071C73.2712 54.7743 73.5301 54.47 73.737 53.9942L74.4436 52.3695L72.0106 51.312Z" fill="#EF1F1A"/>
<path d="M92.8211 35.9186C92.6807 35.9186 92.5544 35.8696 92.4421 35.7715C92.3439 35.6735 92.2948 35.5474 92.2948 35.3933V21.7354C92.2948 21.5813 92.3439 21.4553 92.4421 21.3572C92.5544 21.2591 92.6807 21.2101 92.8211 21.2101H94.7791C94.9896 21.2101 95.144 21.2662 95.2423 21.3782C95.3545 21.4903 95.4317 21.5743 95.4739 21.6304L99.3477 28.7535L103.264 21.6304C103.292 21.5743 103.355 21.4903 103.453 21.3782C103.565 21.2662 103.727 21.2101 103.937 21.2101H105.895C106.05 21.2101 106.176 21.2591 106.274 21.3572C106.373 21.4553 106.422 21.5813 106.422 21.7354V35.3933C106.422 35.5474 106.373 35.6735 106.274 35.7715C106.176 35.8696 106.05 35.9186 105.895 35.9186H103.748C103.608 35.9186 103.488 35.8696 103.39 35.7715C103.292 35.6735 103.243 35.5474 103.243 35.3933V26.9044L100.569 31.9053C100.499 32.0314 100.407 32.1434 100.295 32.2415C100.183 32.3396 100.035 32.3886 99.853 32.3886H98.8635C98.681 32.3886 98.5336 32.3396 98.4214 32.2415C98.3091 32.1434 98.2178 32.0314 98.1477 31.9053L95.4739 26.9044V35.3933C95.4739 35.5474 95.4247 35.6735 95.3265 35.7715C95.2282 35.8696 95.1089 35.9186 94.9686 35.9186H92.8211Z" fill="#EF1F1A"/>
<path d="M110.071 35.9186C109.917 35.9186 109.79 35.8696 109.692 35.7715C109.594 35.6735 109.545 35.5474 109.545 35.3933V21.7354C109.545 21.5813 109.594 21.4553 109.692 21.3572C109.79 21.2591 109.917 21.2101 110.071 21.2101H119.608C119.763 21.2101 119.889 21.2591 119.987 21.3572C120.086 21.4553 120.135 21.5813 120.135 21.7354V23.4164C120.135 23.5565 120.086 23.6755 119.987 23.7736C119.889 23.8717 119.763 23.9207 119.608 23.9207H112.787V27.2196H119.145C119.3 27.2196 119.426 27.2686 119.524 27.3667C119.622 27.4647 119.672 27.5908 119.672 27.7449V29.2998C119.672 29.4399 119.622 29.559 119.524 29.657C119.426 29.7551 119.3 29.8041 119.145 29.8041H112.787V33.2081H119.777C119.931 33.2081 120.058 33.2571 120.156 33.3551C120.254 33.4532 120.303 33.5793 120.303 33.7334V35.3933C120.303 35.5474 120.254 35.6735 120.156 35.7715C120.058 35.8696 119.931 35.9186 119.777 35.9186H110.071Z" fill="#EF1F1A"/>
<path d="M123.332 35.9186C123.178 35.9186 123.052 35.8696 122.953 35.7715C122.855 35.6735 122.806 35.5474 122.806 35.3933V21.7354C122.806 21.5813 122.855 21.4553 122.953 21.3572C123.052 21.2591 123.178 21.2101 123.332 21.2101H125.669C125.824 21.2101 125.95 21.2591 126.048 21.3572C126.147 21.4553 126.196 21.5813 126.196 21.7354V33.103H132.722C132.877 33.103 133.003 33.152 133.101 33.2501C133.2 33.3481 133.249 33.4742 133.249 33.6283V35.3933C133.249 35.5474 133.2 35.6735 133.101 35.7715C133.003 35.8696 132.877 35.9186 132.722 35.9186H123.332Z" fill="#EF1F1A"/>
<path d="M140.851 36.1288C139.574 36.1288 138.472 35.9186 137.546 35.4984C136.619 35.0781 135.897 34.4478 135.377 33.6073C134.858 32.7528 134.577 31.6812 134.535 30.3924C134.521 29.7901 134.514 29.1947 134.514 28.6064C134.514 28.0041 134.521 27.3947 134.535 26.7783C134.577 25.5176 134.858 24.46 135.377 23.6055C135.911 22.737 136.64 22.0856 137.567 21.6514C138.507 21.2171 139.602 21 140.851 21C142.086 21 143.167 21.2171 144.093 21.6514C145.034 22.0856 145.771 22.737 146.304 23.6055C146.837 24.46 147.118 25.5176 147.146 26.7783C147.174 27.3947 147.188 28.0041 147.188 28.6064C147.188 29.1947 147.174 29.7901 147.146 30.3924C147.104 31.6812 146.823 32.7528 146.304 33.6073C145.785 34.4478 145.062 35.0781 144.136 35.4984C143.209 35.9186 142.114 36.1288 140.851 36.1288ZM140.851 33.4182C141.665 33.4182 142.332 33.173 142.851 32.6828C143.385 32.1785 143.665 31.38 143.693 30.2874C143.722 29.671 143.736 29.0967 143.736 28.5644C143.736 28.0181 143.722 27.4437 143.693 26.8414C143.679 26.113 143.546 25.5176 143.293 25.0553C143.041 24.5931 142.704 24.2569 142.283 24.0468C141.876 23.8226 141.399 23.7106 140.851 23.7106C140.304 23.7106 139.82 23.8226 139.398 24.0468C138.977 24.2569 138.641 24.5931 138.388 25.0553C138.149 25.5176 138.016 26.113 137.988 26.8414C137.974 27.4437 137.967 28.0181 137.967 28.5644C137.967 29.0967 137.974 29.671 137.988 30.2874C138.03 31.38 138.311 32.1785 138.83 32.6828C139.349 33.173 140.023 33.4182 140.851 33.4182Z" fill="#EF1F1A"/>
<path d="M155.718 36.1288C154.398 36.1288 153.268 35.9116 152.328 35.4774C151.402 35.0291 150.679 34.3847 150.16 33.5443C149.654 32.6898 149.381 31.6602 149.338 30.4555C149.324 29.8531 149.317 29.2087 149.317 28.5224C149.317 27.836 149.324 27.1846 149.338 26.5682C149.381 25.3915 149.654 24.39 150.16 23.5635C150.679 22.737 151.409 22.1066 152.349 21.6724C153.304 21.2241 154.426 21 155.718 21C156.756 21 157.669 21.1331 158.455 21.3992C159.241 21.6654 159.9 22.0156 160.434 22.4498C160.967 22.8701 161.374 23.3323 161.655 23.8366C161.936 24.3409 162.083 24.8242 162.097 25.2865C162.097 25.4126 162.055 25.5246 161.971 25.6227C161.886 25.7067 161.774 25.7487 161.634 25.7487H159.023C158.883 25.7487 158.77 25.7207 158.686 25.6647C158.616 25.6087 158.553 25.5246 158.497 25.4126C158.399 25.1604 158.237 24.9083 158.013 24.6561C157.802 24.39 157.514 24.1658 157.149 23.9837C156.784 23.8016 156.307 23.7106 155.718 23.7106C154.833 23.7106 154.132 23.9417 153.612 24.404C153.107 24.8662 152.833 25.6227 152.791 26.6733C152.749 27.878 152.749 29.1037 152.791 30.3504C152.833 31.443 153.114 32.2275 153.633 32.7038C154.167 33.18 154.876 33.4182 155.76 33.4182C156.335 33.4182 156.848 33.3201 157.297 33.124C157.76 32.9139 158.125 32.5917 158.391 32.1575C158.658 31.7232 158.792 31.1699 158.792 30.4975V29.9722H156.497C156.356 29.9722 156.237 29.9232 156.139 29.8251C156.041 29.713 155.991 29.587 155.991 29.4469V28.1021C155.991 27.948 156.041 27.8219 156.139 27.7239C156.237 27.6258 156.356 27.5768 156.497 27.5768H161.655C161.809 27.5768 161.936 27.6258 162.034 27.7239C162.132 27.8219 162.181 27.948 162.181 28.1021V30.3924C162.181 31.5971 161.914 32.6267 161.381 33.4812C160.862 34.3357 160.111 34.9941 159.128 35.4564C158.16 35.9046 157.023 36.1288 155.718 36.1288Z" fill="#EF1F1A"/>
<path d="M165.275 35.9186C165.121 35.9186 164.995 35.8696 164.896 35.7715C164.798 35.6735 164.749 35.5474 164.749 35.3933V21.7354C164.749 21.5813 164.798 21.4553 164.896 21.3572C164.995 21.2591 165.121 21.2101 165.275 21.2101H170.854C172.609 21.2101 173.991 21.6164 175.002 22.4288C176.013 23.2273 176.518 24.383 176.518 25.8958C176.518 26.9184 176.272 27.7729 175.781 28.4593C175.29 29.1457 174.63 29.657 173.802 29.9932L176.771 35.2462C176.813 35.3303 176.834 35.4073 176.834 35.4774C176.834 35.5894 176.792 35.6945 176.707 35.7926C176.623 35.8766 176.518 35.9186 176.392 35.9186H174.055C173.802 35.9186 173.612 35.8556 173.486 35.7295C173.36 35.5894 173.269 35.4634 173.212 35.3513L170.644 30.5395H168.096V35.3933C168.096 35.5474 168.047 35.6735 167.949 35.7715C167.851 35.8696 167.724 35.9186 167.57 35.9186H165.275ZM168.096 27.871H170.791C171.563 27.871 172.132 27.6959 172.497 27.3457C172.876 26.9955 173.065 26.5052 173.065 25.8748C173.065 25.2445 172.883 24.7472 172.518 24.383C172.153 24.0187 171.577 23.8366 170.791 23.8366H168.096V27.871Z" fill="#EF1F1A"/>
<path d="M178.237 35.9186C178.11 35.9186 178.005 35.8766 177.921 35.7926C177.837 35.6945 177.795 35.5894 177.795 35.4774C177.795 35.4073 177.802 35.3443 177.816 35.2883L182.826 21.7774C182.868 21.6234 182.953 21.4903 183.079 21.3782C183.205 21.2662 183.381 21.2101 183.605 21.2101H186.3C186.525 21.2101 186.7 21.2662 186.827 21.3782C186.953 21.4903 187.037 21.6234 187.079 21.7774L192.09 35.2883C192.104 35.3443 192.111 35.4073 192.111 35.4774C192.111 35.5894 192.069 35.6945 191.985 35.7926C191.901 35.8766 191.795 35.9186 191.669 35.9186H189.479C189.269 35.9186 189.114 35.8696 189.016 35.7715C188.918 35.6735 188.855 35.5824 188.827 35.4984L187.921 33.145H181.984L181.079 35.4984C181.051 35.5824 180.988 35.6735 180.889 35.7715C180.791 35.8696 180.637 35.9186 180.426 35.9186H178.237ZM182.763 30.4345H187.121L184.953 24.383L182.763 30.4345Z" fill="#EF1F1A"/>
<path d="M194.45 35.9186C194.296 35.9186 194.169 35.8696 194.071 35.7715C193.973 35.6735 193.924 35.5474 193.924 35.3933V21.7354C193.924 21.5813 193.973 21.4553 194.071 21.3572C194.169 21.2591 194.296 21.2101 194.45 21.2101H196.366C196.577 21.2101 196.731 21.2591 196.829 21.3572C196.927 21.4553 196.991 21.5323 197.019 21.5883L202.64 30.3504V21.7354C202.64 21.5813 202.689 21.4553 202.787 21.3572C202.886 21.2591 203.005 21.2101 203.145 21.2101H205.293C205.447 21.2101 205.573 21.2591 205.672 21.3572C205.77 21.4553 205.819 21.5813 205.819 21.7354V35.3933C205.819 35.5334 205.77 35.6595 205.672 35.7715C205.573 35.8696 205.447 35.9186 205.293 35.9186H203.356C203.145 35.9186 202.991 35.8696 202.893 35.7715C202.808 35.6595 202.745 35.5824 202.703 35.5404L197.103 27.0515V35.3933C197.103 35.5474 197.054 35.6735 196.956 35.7715C196.857 35.8696 196.731 35.9186 196.577 35.9186H194.45Z" fill="#EF1F1A"/>
<path d="M214.786 36.1288C213.508 36.1288 212.407 35.9186 211.48 35.4984C210.554 35.0781 209.831 34.4478 209.312 33.6073C208.792 32.7528 208.512 31.6812 208.47 30.3924C208.456 29.7901 208.449 29.1947 208.449 28.6064C208.449 28.0041 208.456 27.3947 208.47 26.7783C208.512 25.5176 208.792 24.46 209.312 23.6055C209.845 22.737 210.575 22.0856 211.501 21.6514C212.442 21.2171 213.536 21 214.786 21C216.021 21 217.102 21.2171 218.028 21.6514C218.968 22.0856 219.705 22.737 220.239 23.6055C220.772 24.46 221.053 25.5176 221.081 26.7783C221.109 27.3947 221.123 28.0041 221.123 28.6064C221.123 29.1947 221.109 29.7901 221.081 30.3924C221.039 31.6812 220.758 32.7528 220.239 33.6073C219.719 34.4478 218.996 35.0781 218.07 35.4984C217.144 35.9186 216.049 36.1288 214.786 36.1288ZM214.786 33.4182C215.6 33.4182 216.266 33.173 216.786 32.6828C217.319 32.1785 217.6 31.38 217.628 30.2874C217.656 29.671 217.67 29.0967 217.67 28.5644C217.67 28.0181 217.656 27.4437 217.628 26.8414C217.614 26.113 217.481 25.5176 217.228 25.0553C216.975 24.5931 216.638 24.2569 216.217 24.0468C215.81 23.8226 215.333 23.7106 214.786 23.7106C214.238 23.7106 213.754 23.8226 213.333 24.0468C212.912 24.2569 212.575 24.5931 212.322 25.0553C212.084 25.5176 211.95 26.113 211.922 26.8414C211.908 27.4437 211.901 28.0181 211.901 28.5644C211.901 29.0967 211.908 29.671 211.922 30.2874C211.964 31.38 212.245 32.1785 212.764 32.6828C213.284 33.173 213.958 33.4182 214.786 33.4182Z" fill="#EF1F1A"/>
<path d="M97.9161 61C96.6809 61 95.6282 60.7689 94.758 60.3066C93.9018 59.8443 93.2422 59.193 92.779 58.3525C92.3298 57.512 92.0772 56.5244 92.0211 55.3898C92.007 54.7734 92 54.122 92 53.4356C92 52.7352 92.007 52.0698 92.0211 51.4395C92.0772 50.3048 92.3298 49.3242 92.779 48.4978C93.2422 47.6713 93.9089 47.0269 94.7791 46.5646C95.6493 46.1024 96.695 45.8712 97.9161 45.8712C98.9126 45.8712 99.7758 46.0113 100.506 46.2915C101.236 46.5717 101.832 46.9289 102.295 47.3631C102.772 47.7834 103.123 48.2246 103.348 48.6869C103.587 49.1491 103.713 49.5554 103.727 49.9056C103.741 50.0317 103.706 50.1367 103.622 50.2208C103.537 50.2908 103.425 50.3258 103.285 50.3258H102.043C101.902 50.3258 101.797 50.2978 101.727 50.2418C101.671 50.1857 101.614 50.0877 101.558 49.9476C101.432 49.5834 101.221 49.2262 100.927 48.876C100.646 48.5258 100.26 48.2386 99.7688 48.0145C99.2916 47.7763 98.674 47.6573 97.9161 47.6573C96.8072 47.6573 95.909 47.9585 95.2212 48.5608C94.5475 49.1631 94.1826 50.1577 94.1264 51.5445C94.0843 52.7912 94.0843 54.038 94.1264 55.2847C94.1826 56.6855 94.5545 57.6941 95.2423 58.3104C95.93 58.9128 96.8283 59.214 97.9371 59.214C98.681 59.214 99.3407 59.0809 99.9162 58.8147C100.506 58.5346 100.969 58.1073 101.306 57.533C101.643 56.9587 101.811 56.2302 101.811 55.3477V54.4652H98.653C98.5126 54.4652 98.3933 54.4232 98.295 54.3391C98.2108 54.2411 98.1687 54.115 98.1687 53.9609V53.2885C98.1687 53.1344 98.2108 53.0154 98.295 52.9313C98.3933 52.8333 98.5126 52.7842 98.653 52.7842H103.411C103.565 52.7842 103.685 52.8333 103.769 52.9313C103.853 53.0154 103.895 53.1344 103.895 53.2885V55.3057C103.895 56.4544 103.657 57.4559 103.179 58.3104C102.716 59.1649 102.036 59.8303 101.137 60.3066C100.239 60.7689 99.1653 61 97.9161 61Z" fill="#EF1F1A"/>
<path d="M107.383 60.7899C107.229 60.7899 107.109 60.7479 107.025 60.6638C106.941 60.5657 106.899 60.4467 106.899 60.3066V46.5857C106.899 46.4316 106.941 46.3125 107.025 46.2285C107.109 46.1304 107.229 46.0814 107.383 46.0814H112.52C114.106 46.0814 115.362 46.4526 116.289 47.195C117.215 47.9374 117.678 49.0371 117.678 50.4939C117.678 51.5725 117.405 52.4551 116.857 53.1415C116.324 53.8138 115.594 54.2831 114.668 54.5493L117.91 60.1385C117.952 60.2225 117.973 60.2996 117.973 60.3696C117.973 60.4817 117.924 60.5798 117.826 60.6638C117.742 60.7479 117.643 60.7899 117.531 60.7899H116.52C116.282 60.7899 116.106 60.7268 115.994 60.6008C115.882 60.4747 115.784 60.3486 115.699 60.2225L112.647 54.8855H108.962V60.3066C108.962 60.4467 108.913 60.5657 108.815 60.6638C108.731 60.7479 108.611 60.7899 108.457 60.7899H107.383ZM108.962 53.0994H112.436C113.489 53.0994 114.275 52.8823 114.794 52.448C115.313 51.9998 115.573 51.3414 115.573 50.4729C115.573 49.6184 115.313 48.967 114.794 48.5188C114.289 48.0705 113.503 47.8464 112.436 47.8464H108.962V53.0994Z" fill="#EF1F1A"/>
<path d="M125.959 61C124.766 61 123.741 60.7969 122.885 60.3906C122.029 59.9704 121.369 59.333 120.906 58.4785C120.443 57.61 120.183 56.5244 120.127 55.2217C120.113 54.6053 120.106 54.017 120.106 53.4566C120.106 52.8823 120.113 52.287 120.127 51.6706C120.183 50.3819 120.45 49.3102 120.927 48.4557C121.418 47.5872 122.092 46.9429 122.948 46.5226C123.818 46.0884 124.822 45.8712 125.959 45.8712C127.11 45.8712 128.113 46.0884 128.969 46.5226C129.84 46.9429 130.52 47.5872 131.012 48.4557C131.503 49.3102 131.77 50.3819 131.812 51.6706C131.84 52.287 131.854 52.8823 131.854 53.4566C131.854 54.017 131.84 54.6053 131.812 55.2217C131.77 56.5244 131.51 57.61 131.033 58.4785C130.569 59.333 129.91 59.9704 129.054 60.3906C128.197 60.7969 127.166 61 125.959 61ZM125.959 59.214C127.039 59.214 127.917 58.8918 128.59 58.2474C129.278 57.603 129.65 56.5594 129.706 55.1166C129.734 54.4862 129.748 53.9259 129.748 53.4356C129.748 52.9313 129.734 52.371 129.706 51.7546C129.678 50.7881 129.496 50.0036 129.159 49.4013C128.836 48.7989 128.401 48.3577 127.854 48.0775C127.306 47.7974 126.675 47.6573 125.959 47.6573C125.271 47.6573 124.653 47.7974 124.106 48.0775C123.559 48.3577 123.116 48.7989 122.78 49.4013C122.457 50.0036 122.274 50.7881 122.232 51.7546C122.218 52.371 122.211 52.9313 122.211 53.4356C122.211 53.9259 122.218 54.4862 122.232 55.1166C122.288 56.5594 122.66 57.603 123.348 58.2474C124.036 58.8918 124.906 59.214 125.959 59.214Z" fill="#EF1F1A"/>
<path d="M140.481 61C139.302 61 138.284 60.7899 137.428 60.3696C136.586 59.9494 135.933 59.312 135.47 58.4575C135.021 57.589 134.796 56.4754 134.796 55.1166V46.5857C134.796 46.4316 134.838 46.3125 134.922 46.2285C135.007 46.1304 135.126 46.0814 135.28 46.0814H136.354C136.508 46.0814 136.628 46.1304 136.712 46.2285C136.81 46.3125 136.859 46.4316 136.859 46.5857V55.1586C136.859 56.5314 137.182 57.547 137.828 58.2054C138.473 58.8638 139.358 59.193 140.481 59.193C141.589 59.193 142.467 58.8638 143.112 58.2054C143.772 57.547 144.102 56.5314 144.102 55.1586V46.5857C144.102 46.4316 144.144 46.3125 144.228 46.2285C144.326 46.1304 144.446 46.0814 144.586 46.0814H145.681C145.821 46.0814 145.934 46.1304 146.018 46.2285C146.116 46.3125 146.165 46.4316 146.165 46.5857V55.1166C146.165 56.4754 145.934 57.589 145.47 58.4575C145.021 59.312 144.376 59.9494 143.533 60.3696C142.691 60.7899 141.674 61 140.481 61Z" fill="#EF1F1A"/>
<path d="M150.169 60.7899C150.015 60.7899 149.895 60.7479 149.811 60.6638C149.727 60.5657 149.685 60.4467 149.685 60.3066V46.5857C149.685 46.4316 149.727 46.3125 149.811 46.2285C149.895 46.1304 150.015 46.0814 150.169 46.0814H155.517C156.555 46.0814 157.453 46.2495 158.211 46.5857C158.983 46.9219 159.58 47.4261 160.001 48.0985C160.422 48.7569 160.633 49.5834 160.633 50.578C160.633 51.5725 160.422 52.399 160.001 53.0574C159.58 53.7158 158.983 54.2131 158.211 54.5493C157.453 54.8855 156.555 55.0536 155.517 55.0536H151.79V60.3066C151.79 60.4467 151.741 60.5657 151.643 60.6638C151.558 60.7479 151.439 60.7899 151.285 60.7899H150.169ZM151.769 53.2885H155.411C156.45 53.2885 157.229 53.0574 157.748 52.5951C158.268 52.1329 158.527 51.4605 158.527 50.578C158.527 49.7095 158.275 49.0371 157.769 48.5608C157.264 48.0845 156.478 47.8464 155.411 47.8464H151.769V53.2885Z" fill="#EF1F1A"/>
</svg>
